<svg width="18" height="18" viewBox="0 0 18 18" fill="none" xmlns="http://www.w3.org/2000/svg">
<path d="M8.82027 14.7056H1.64497C1.32249 14.7056 1 14.3831 1 14.0607V1.64497C1 1.32249 1.32249 1 1.64497 1H8.82027C9.14275 1 9.46524 1.32249 9.46524 1.64497V14.0607C9.46524 14.3831 9.14275 14.7056 8.82027 14.7056Z" stroke="#545454" stroke-width="1.7" stroke-miterlimit="10" stroke-linecap="round" stroke-linejoin="round"/>
<path d="M1 7.85278H6.24038" stroke="#545454" stroke-width="1.7" stroke-miterlimit="10" stroke-linecap="round" stroke-linejoin="round"/>
<path d="M4.30664 5.4342L6.56404 7.85284L4.30664 10.2715" stroke="#545454" stroke-width="1.7" stroke-miterlimit="10" stroke-linecap="round" stroke-linejoin="round"/>
<path d="M9.62447 3.41931H16.0742C16.3967 3.41931 16.7191 3.7418 16.7191 4.06428V16.48C16.7191 16.8024 16.3967 17.1249 16.0742 17.1249H8.89888C8.57639 17.1249 8.25391 16.8024 8.25391 16.48V14.7063" stroke="#545454" stroke-width="1.7" stroke-miterlimit="10" stroke-linecap="round" stroke-linejoin="round"/>
<path d="M16.718 10.2721H11.397" stroke="#545454" stroke-width="1.7" stroke-miterlimit="10" stroke-linecap="round" stroke-linejoin="round"/>
<path d="M13.4149 12.7714L11.1575 10.2721L13.4149 7.85345" stroke="#545454" stroke-width="1.7" stroke-miterlimit="10" stroke-linecap="round" stroke-linejoin="round"/>
</svg>
