<svg width="22" height="19" viewBox="0 0 22 19" fill="none" xmlns="http://www.w3.org/2000/svg">
<path d="M1.66016 1H5.28811L7.70675 11.4808H17.9457L20.3643 3.09615H6.09433" stroke="#545454" stroke-width="1.7" stroke-miterlimit="10" stroke-linecap="round" stroke-linejoin="round"/>
<path d="M7.70601 11.4801C7.70601 11.4801 6.33544 11.3995 6.33544 12.77C6.33544 12.77 6.1742 13.5762 7.70601 13.5762C9.23781 13.5762 18.8317 13.5762 18.8317 13.5762" stroke="#545454" stroke-width="1.7" stroke-miterlimit="10" stroke-linecap="round" stroke-linejoin="round"/>
<path d="M8.51243 17.2049C9.09127 17.2049 9.56051 16.7356 9.56051 16.1568C9.56051 15.5779 9.09127 15.1087 8.51243 15.1087C7.9336 15.1087 7.46436 15.5779 7.46436 16.1568C7.46436 16.7356 7.9336 17.2049 8.51243 17.2049Z" stroke="#545454" stroke-width="1.7" stroke-miterlimit="10" stroke-linecap="round" stroke-linejoin="round"/>
<path d="M16.9775 17.2049C17.5564 17.2049 18.0256 16.7356 18.0256 16.1568C18.0256 15.5779 17.5564 15.1087 16.9775 15.1087C16.3987 15.1087 15.9294 15.5779 15.9294 16.1568C15.9294 16.7356 16.3987 17.2049 16.9775 17.2049Z" stroke="#545454" stroke-width="1.7" stroke-miterlimit="10" stroke-linecap="round" stroke-linejoin="round"/>
</svg>
