<svg width="260" height="56" viewBox="0 0 260 56" fill="none" xmlns="http://www.w3.org/2000/svg">
<path d="M19.1016 28.3008H14.5898V22.9688H4.60547V28.3008H0.09375V19.1719H1.51172C2.53516 17.4375 3.37891 15.4336 4.04297 13.1602C4.70703 10.8789 5.13672 8.4375 5.33203 5.83594H16.7578V19.1719H19.1016V28.3008ZM12.0938 19.1719V9.62109H9.04688C8.72656 12.9648 7.84766 16.1484 6.41016 19.1719H12.0938Z" fill="#556DE6"/>
<path d="M37.4297 14.3789C37.4297 17.2617 36.7227 19.4531 35.3086 20.9531C33.8945 22.4531 31.8242 23.2031 29.0977 23.2031C26.4102 23.2031 24.3477 22.4492 22.9102 20.9414C21.4805 19.4336 20.7656 17.2383 20.7656 14.3555C20.7656 11.5039 21.4766 9.32812 22.8984 7.82812C24.3281 6.32031 26.4023 5.56641 29.1211 5.56641C31.8477 5.56641 33.9141 6.3125 35.3203 7.80469C36.7266 9.29688 37.4297 11.4883 37.4297 14.3789ZM25.6406 14.3789C25.6406 17.6914 26.793 19.3477 29.0977 19.3477C30.2695 19.3477 31.1367 18.9453 31.6992 18.1406C32.2695 17.3359 32.5547 16.082 32.5547 14.3789C32.5547 12.668 32.2656 11.4062 31.6875 10.5938C31.1172 9.77344 30.2617 9.36328 29.1211 9.36328C26.8008 9.36328 25.6406 11.0352 25.6406 14.3789Z" fill="#556DE6"/>
<path d="M55.1133 22.9688H50.4609V9.62109H47.1914C47.0117 11.5664 46.7695 13.5469 46.4648 15.5625C46.168 17.5781 45.8828 18.9922 45.6094 19.8047C45.3359 20.6172 44.9883 21.2656 44.5664 21.75C44.1523 22.2266 43.6367 22.5898 43.0195 22.8398C42.4023 23.082 41.6562 23.2031 40.7812 23.2031C40.1172 23.2031 39.5117 23.1172 38.9648 22.9453V19.3711C39.4336 19.5273 39.8164 19.6055 40.1133 19.6055C40.5195 19.6055 40.8281 19.4375 41.0391 19.1016C41.2578 18.7578 41.457 18.1797 41.6367 17.3672C41.8164 16.5469 42.0664 15.0312 42.3867 12.8203C42.707 10.6016 43.0039 8.27344 43.2773 5.83594H55.1133V22.9688Z" fill="#556DE6"/>
<path d="M71.0625 17.2852C71.0625 19.1133 70.4375 20.5195 69.1875 21.5039C67.9453 22.4805 66.1797 22.9688 63.8906 22.9688H58.8281V5.83594H63.4805V11.9297H63.7148C66.1055 11.9297 67.9258 12.3828 69.1758 13.2891C70.4336 14.1875 71.0625 15.5195 71.0625 17.2852ZM63.4805 19.418H63.6914C65.5039 19.418 66.4102 18.7461 66.4102 17.4023C66.4102 16.1211 65.4961 15.4805 63.668 15.4805H63.4805V19.418Z" fill="#556DE6"/>
<path d="M73.7812 22.9688V5.83594H78.4336V19.1719H82.7109V5.83594H87.2695V19.1719H91.5352V5.83594H96.1992V19.1719H99.7969V28.3008H95.2852V22.9688H73.7812Z" fill="#556DE6"/>
<path d="M102.094 5.83594H106.219V13.1953C106.219 13.9766 106.156 15.5391 106.031 17.8828H106.125L112.957 5.83594H118.676V22.9688H114.574V15.7969C114.574 14.7109 114.645 13.0859 114.785 10.9219H114.691L107.801 22.9688H102.094V5.83594Z" fill="#556DE6"/>
<path d="M137.367 22.9688H132.129L127.043 14.2852V22.9688H122.391V5.83594H127.043V14.1328L131.941 5.83594H137.027L131.742 14.0156L137.367 22.9688Z" fill="#556DE6"/>
<path d="M167.625 14.3789C167.625 17.2617 166.918 19.4531 165.504 20.9531C164.09 22.4531 162.02 23.2031 159.293 23.2031C156.605 23.2031 154.543 22.4492 153.105 20.9414C151.676 19.4336 150.961 17.2383 150.961 14.3555C150.961 11.5039 151.672 9.32812 153.094 7.82812C154.523 6.32031 156.598 5.56641 159.316 5.56641C162.043 5.56641 164.109 6.3125 165.516 7.80469C166.922 9.29688 167.625 11.4883 167.625 14.3789ZM155.836 14.3789C155.836 17.6914 156.988 19.3477 159.293 19.3477C160.465 19.3477 161.332 18.9453 161.895 18.1406C162.465 17.3359 162.75 16.082 162.75 14.3789C162.75 12.668 162.461 11.4062 161.883 10.5938C161.312 9.77344 160.457 9.36328 159.316 9.36328C156.996 9.36328 155.836 11.0352 155.836 14.3789Z" fill="#556DE6"/>
<path d="M185.402 22.9688H180.75V15.9844H175.371V22.9688H170.719V5.83594H175.371V12.1875H180.75V5.83594H185.402V22.9688Z" fill="#556DE6"/>
<path d="M203.707 22.9688H199.055V9.62109H195.785C195.605 11.5664 195.363 13.5469 195.059 15.5625C194.762 17.5781 194.477 18.9922 194.203 19.8047C193.93 20.6172 193.582 21.2656 193.16 21.75C192.746 22.2266 192.23 22.5898 191.613 22.8398C190.996 23.082 190.25 23.2031 189.375 23.2031C188.711 23.2031 188.105 23.1172 187.559 22.9453V19.3711C188.027 19.5273 188.41 19.6055 188.707 19.6055C189.113 19.6055 189.422 19.4375 189.633 19.1016C189.852 18.7578 190.051 18.1797 190.23 17.3672C190.41 16.5469 190.66 15.0312 190.98 12.8203C191.301 10.6016 191.598 8.27344 191.871 5.83594H203.707V22.9688Z" fill="#556DE6"/>
<path d="M217.934 22.9688L217.09 19.7578H211.523L210.656 22.9688H205.57L211.16 5.76562H217.336L222.996 22.9688H217.934ZM216.129 15.9609L215.391 13.1484C215.219 12.5234 215.008 11.7148 214.758 10.7227C214.516 9.73047 214.355 9.01953 214.277 8.58984C214.207 8.98828 214.066 9.64453 213.855 10.5586C213.652 11.4727 213.195 13.2734 212.484 15.9609H216.129Z" fill="#556DE6"/>
<path d="M224.859 5.83594H228.984V13.1953C228.984 13.9766 228.922 15.5391 228.797 17.8828H228.891L235.723 5.83594H241.441V22.9688H237.34V15.7969C237.34 14.7109 237.41 13.0859 237.551 10.9219H237.457L230.566 22.9688H224.859V5.83594ZM233.109 4.46484C231.242 4.46484 229.844 4.10156 228.914 3.375C227.992 2.64844 227.477 1.52344 227.367 0H231.188C231.227 0.765625 231.395 1.32031 231.691 1.66406C231.988 2.00781 232.461 2.17969 233.109 2.17969C234.281 2.17969 234.922 1.45312 235.031 0H238.91C238.59 2.97656 236.656 4.46484 233.109 4.46484Z" fill="#556DE6"/>
<path d="M259.84 22.9688H255.188V15.9844H249.809V22.9688H245.156V5.83594H249.809V12.1875H255.188V5.83594H259.84V22.9688Z" fill="#556DE6"/>
<path d="M142 19.9688H146V23.9688H142V19.9688Z" fill="#556DE6"/>
<path d="M0 30.9688H260V33.9688H0V30.9688Z" fill="#556DE6"/>
<rect x="142" y="19.9994" width="4" height="4" fill="#F00014"/>
<path d="M34.5636 39.2891L32.7941 43.3281C32.6352 43.6927 32.4659 44.0065 32.2862 44.2695C32.1066 44.5299 31.8787 44.7305 31.6027 44.8711C31.3266 45.0091 30.9646 45.0781 30.5167 45.0781C30.3761 45.0781 30.2237 45.0677 30.0597 45.0469C29.8956 45.0286 29.7433 45 29.6027 44.9609V43.9219C29.7329 43.9714 29.8735 44.0078 30.0245 44.0312C30.1782 44.0521 30.3227 44.0625 30.4581 44.0625C30.6352 44.0625 30.7784 44.0326 30.8878 43.9727C30.9972 43.9128 31.0844 43.832 31.1495 43.7305C31.2146 43.6289 31.2693 43.5156 31.3136 43.3906L29.337 39.2891H30.6183L31.6847 41.7617C31.7081 41.8138 31.7381 41.8841 31.7745 41.9727C31.8136 42.0586 31.8514 42.1471 31.8878 42.2383C31.9269 42.3268 31.9568 42.4049 31.9777 42.4727H32.0206C32.0415 42.4076 32.0688 42.3294 32.1027 42.2383C32.1391 42.1445 32.1769 42.0495 32.2159 41.9531C32.255 41.8542 32.2902 41.7656 32.3214 41.6875L33.3136 39.2891H34.5636ZM43.675 39.2891V43.9922H44.4367V46.6641H43.2687V45H39.6906V46.6641H38.5227V43.9922H38.9641C39.1125 43.6953 39.2557 43.3815 39.3937 43.0508C39.5318 42.7201 39.6607 42.3646 39.7805 41.9844C39.9003 41.6042 40.0083 41.1914 40.1047 40.7461C40.201 40.3008 40.2818 39.8151 40.3469 39.2891H43.675ZM42.468 40.2969H41.3078C41.2687 40.5729 41.2154 40.8672 41.1477 41.1797C41.0799 41.4922 40.9992 41.8112 40.9055 42.1367C40.8143 42.4596 40.7115 42.7786 40.5969 43.0938C40.4849 43.4089 40.3651 43.7083 40.2375 43.9922H42.468V40.2969ZM54.4231 42.1367C54.4231 42.5768 54.3684 42.9779 54.2591 43.3398C54.1497 43.6992 53.983 44.0091 53.7591 44.2695C53.5377 44.5299 53.2565 44.7305 52.9153 44.8711C52.5742 45.0091 52.1705 45.0781 51.7044 45.0781C51.2382 45.0781 50.8346 45.0091 50.4934 44.8711C50.1523 44.7305 49.8697 44.5299 49.6458 44.2695C49.4244 44.0091 49.2591 43.6979 49.1497 43.3359C49.0403 42.974 48.9856 42.5716 48.9856 42.1289C48.9856 41.5378 49.082 41.0234 49.2747 40.5859C49.47 40.1458 49.7695 39.8047 50.1731 39.5625C50.5768 39.3203 51.0898 39.1992 51.7122 39.1992C52.332 39.1992 52.8411 39.3203 53.2395 39.5625C53.6406 39.8047 53.9374 40.1458 54.1302 40.5859C54.3255 41.026 54.4231 41.543 54.4231 42.1367ZM50.2552 42.1367C50.2552 42.5352 50.3046 42.8789 50.4036 43.168C50.5052 43.4544 50.6627 43.6758 50.8762 43.832C51.0898 43.9857 51.3658 44.0625 51.7044 44.0625C52.0481 44.0625 52.3268 43.9857 52.5403 43.832C52.7539 43.6758 52.9088 43.4544 53.0052 43.168C53.1041 42.8789 53.1536 42.5352 53.1536 42.1367C53.1536 41.5378 53.0416 41.0664 52.8177 40.7227C52.5937 40.3789 52.2252 40.207 51.7122 40.207C51.371 40.207 51.0924 40.2852 50.8762 40.4414C50.6627 40.5951 50.5052 40.8164 50.4036 41.1055C50.3046 41.3919 50.2552 41.7357 50.2552 42.1367ZM59.5267 45V39.2891H63.1361V40.2891H60.7377V41.4805H61.2142C61.7507 41.4805 62.1908 41.5547 62.5345 41.7031C62.8809 41.8516 63.1361 42.0573 63.3002 42.3203C63.4668 42.5807 63.5502 42.8789 63.5502 43.2148C63.5502 43.7799 63.3614 44.2188 62.9837 44.5312C62.6087 44.8438 62.0111 45 61.1908 45H59.5267ZM60.7377 44.0078H61.1439C61.5111 44.0078 61.8002 43.9492 62.0111 43.832C62.222 43.7122 62.3275 43.5065 62.3275 43.2148C62.3275 43.0117 62.2754 42.8568 62.1712 42.75C62.0697 42.6432 61.9226 42.5703 61.7298 42.5312C61.5397 42.4922 61.3119 42.4727 61.0462 42.4727H60.7377V44.0078ZM73.2358 45H72.0287V42.5352H69.767V45H68.5561V39.2891H69.767V41.5273H72.0287V39.2891H73.2358V45ZM83.7847 42.1367C83.7847 42.5768 83.73 42.9779 83.6206 43.3398C83.5112 43.6992 83.3446 44.0091 83.1206 44.2695C82.8993 44.5299 82.618 44.7305 82.2769 44.8711C81.9357 45.0091 81.5321 45.0781 81.0659 45.0781C80.5998 45.0781 80.1961 45.0091 79.855 44.8711C79.5138 44.7305 79.2313 44.5299 79.0073 44.2695C78.786 44.0091 78.6206 43.6979 78.5112 43.3359C78.4019 42.974 78.3472 42.5716 78.3472 42.1289C78.3472 41.5378 78.4435 41.0234 78.6362 40.5859C78.8316 40.1458 79.131 39.8047 79.5347 39.5625C79.9383 39.3203 80.4513 39.1992 81.0737 39.1992C81.6935 39.1992 82.2027 39.3203 82.6011 39.5625C83.0021 39.8047 83.299 40.1458 83.4917 40.5859C83.687 41.026 83.7847 41.543 83.7847 42.1367ZM79.6167 42.1367C79.6167 42.5352 79.6662 42.8789 79.7652 43.168C79.8667 43.4544 80.0243 43.6758 80.2378 43.832C80.4513 43.9857 80.7274 44.0625 81.0659 44.0625C81.4097 44.0625 81.6883 43.9857 81.9019 43.832C82.1154 43.6758 82.2704 43.4544 82.3667 43.168C82.4657 42.8789 82.5152 42.5352 82.5152 42.1367C82.5152 41.5378 82.4032 41.0664 82.1792 40.7227C81.9553 40.3789 81.5868 40.207 81.0737 40.207C80.7326 40.207 80.454 40.2852 80.2378 40.4414C80.0243 40.5951 79.8667 40.8164 79.7652 41.1055C79.6662 41.3919 79.6167 41.7357 79.6167 42.1367ZM94.8864 39.2891H96.6637C97.4242 39.2891 97.9997 39.3958 98.3903 39.6094C98.7809 39.8229 98.9762 40.1979 98.9762 40.7344C98.9762 40.9505 98.9411 41.1458 98.8708 41.3203C98.8031 41.4948 98.7041 41.638 98.5739 41.75C98.4437 41.862 98.2848 41.9349 98.0973 41.9688V42.0078C98.2874 42.0469 98.4593 42.1146 98.613 42.2109C98.7666 42.3047 98.889 42.4427 98.9802 42.625C99.0739 42.8047 99.1208 43.0443 99.1208 43.3438C99.1208 43.6901 99.0361 43.987 98.8669 44.2344C98.6976 44.4818 98.4554 44.6719 98.1403 44.8047C97.8278 44.9349 97.4554 45 97.0231 45H94.8864V39.2891ZM96.0973 41.5508H96.8005C97.152 41.5508 97.3955 41.4961 97.5309 41.3867C97.6664 41.2747 97.7341 41.1107 97.7341 40.8945C97.7341 40.6758 97.6533 40.5195 97.4919 40.4258C97.333 40.3294 97.0804 40.2812 96.7341 40.2812H96.0973V41.5508ZM96.0973 42.5117V44H96.8864C97.251 44 97.5049 43.9297 97.6481 43.7891C97.7914 43.6484 97.863 43.4596 97.863 43.2227C97.863 43.082 97.8317 42.9583 97.7692 42.8516C97.7067 42.7448 97.6012 42.6615 97.4528 42.6016C97.307 42.5417 97.1052 42.5117 96.8473 42.5117H96.0973ZM104.181 45V39.2891H105.392V41.4805H105.783C106.312 41.4805 106.745 41.5547 107.084 41.7031C107.425 41.8516 107.677 42.0573 107.842 42.3203C108.006 42.5807 108.088 42.8789 108.088 43.2148C108.088 43.7799 107.9 44.2188 107.525 44.5312C107.153 44.8438 106.559 45 105.744 45H104.181ZM105.392 44.0078H105.709C106.066 44.0078 106.347 43.9492 106.552 43.832C106.758 43.7122 106.861 43.5065 106.861 43.2148C106.861 43.0117 106.814 42.8568 106.72 42.75C106.627 42.6432 106.49 42.5703 106.31 42.5312C106.131 42.4922 105.912 42.4727 105.654 42.4727H105.392V44.0078ZM108.783 45V39.2891H109.99V45H108.783ZM115.351 45V39.2891H118.961V40.2891H116.562V41.4805H117.039C117.575 41.4805 118.015 41.5547 118.359 41.7031C118.706 41.8516 118.961 42.0573 119.125 42.3203C119.292 42.5807 119.375 42.8789 119.375 43.2148C119.375 43.7799 119.186 44.2188 118.808 44.5312C118.433 44.8438 117.836 45 117.015 45H115.351ZM116.562 44.0078H116.969C117.336 44.0078 117.625 43.9492 117.836 43.832C118.047 43.7122 118.152 43.5065 118.152 43.2148C118.152 43.0117 118.1 42.8568 117.996 42.75C117.894 42.6432 117.747 42.5703 117.555 42.5312C117.364 42.4922 117.137 42.4727 116.871 42.4727H116.562V44.0078ZM126.205 39.2891C126.942 39.2891 127.48 39.4479 127.818 39.7656C128.157 40.0807 128.326 40.5156 128.326 41.0703C128.326 41.3203 128.288 41.5599 128.213 41.7891C128.137 42.0156 128.014 42.2174 127.842 42.3945C127.672 42.5716 127.446 42.7122 127.162 42.8164C126.878 42.918 126.528 42.9688 126.111 42.9688H125.592V45H124.381V39.2891H126.205ZM126.142 40.2812H125.592V41.9766H125.99C126.217 41.9766 126.413 41.9466 126.58 41.8867C126.747 41.8268 126.876 41.7331 126.967 41.6055C127.058 41.4779 127.103 41.3138 127.103 41.1133C127.103 40.832 127.025 40.6237 126.869 40.4883C126.713 40.3503 126.471 40.2812 126.142 40.2812ZM136.82 45L136.406 43.6406H134.324L133.91 45H132.605L134.621 39.2656H136.102L138.125 45H136.82ZM136.117 42.625L135.703 41.2969C135.677 41.2083 135.642 41.0951 135.598 40.957C135.556 40.8164 135.513 40.6745 135.469 40.5312C135.427 40.3854 135.393 40.2591 135.367 40.1523C135.341 40.2591 135.305 40.3919 135.258 40.5508C135.214 40.707 135.171 40.8555 135.129 40.9961C135.087 41.1367 135.057 41.237 135.039 41.2969L134.629 42.625H136.117ZM144.971 45H143.76V40.2969H142.209V39.2891H146.522V40.2969H144.971V45ZM151.32 45V39.2891H152.531V41.4805H153.008C153.544 41.4805 153.985 41.5547 154.328 41.7031C154.675 41.8516 154.93 42.0573 155.094 42.3203C155.261 42.5807 155.344 42.8789 155.344 43.2148C155.344 43.7799 155.155 44.2188 154.777 44.5312C154.402 44.8438 153.805 45 152.985 45H151.32ZM152.531 44.0078H152.938C153.305 44.0078 153.594 43.9492 153.805 43.832C154.016 43.7122 154.121 43.5065 154.121 43.2148C154.121 43.0117 154.069 42.8568 153.965 42.75C153.863 42.6432 153.716 42.5703 153.524 42.5312C153.333 42.4922 153.106 42.4727 152.84 42.4727H152.531V44.0078ZM161.365 44.0703L161.424 44.1602C161.377 44.3477 161.316 44.5495 161.24 44.7656C161.168 44.9818 161.087 45.1979 160.998 45.4141C160.912 45.6302 160.825 45.8359 160.737 46.0312H159.877C159.929 45.8203 159.98 45.599 160.03 45.3672C160.079 45.1354 160.125 44.9076 160.166 44.6836C160.211 44.4596 160.246 44.2552 160.272 44.0703H161.365ZM177.135 39.2891L175.366 43.3281C175.207 43.6927 175.038 44.0065 174.858 44.2695C174.678 44.5299 174.45 44.7305 174.174 44.8711C173.898 45.0091 173.536 45.0781 173.088 45.0781C172.948 45.0781 172.795 45.0677 172.631 45.0469C172.467 45.0286 172.315 45 172.174 44.9609V43.9219C172.304 43.9714 172.445 44.0078 172.596 44.0312C172.75 44.0521 172.894 44.0625 173.03 44.0625C173.207 44.0625 173.35 44.0326 173.459 43.9727C173.569 43.9128 173.656 43.832 173.721 43.7305C173.786 43.6289 173.841 43.5156 173.885 43.3906L171.909 39.2891H173.19L174.256 41.7617C174.28 41.8138 174.31 41.8841 174.346 41.9727C174.385 42.0586 174.423 42.1471 174.459 42.2383C174.498 42.3268 174.528 42.4049 174.549 42.4727H174.592C174.613 42.4076 174.64 42.3294 174.674 42.2383C174.711 42.1445 174.748 42.0495 174.788 41.9531C174.827 41.8542 174.862 41.7656 174.893 41.6875L175.885 39.2891H177.135ZM186.247 39.2891V43.9922H187.008V46.6641H185.84V45H182.262V46.6641H181.094V43.9922H181.536C181.684 43.6953 181.827 43.3815 181.965 43.0508C182.103 42.7201 182.232 42.3646 182.352 41.9844C182.472 41.6042 182.58 41.1914 182.676 40.7461C182.773 40.3008 182.853 39.8151 182.918 39.2891H186.247ZM185.04 40.2969H183.879C183.84 40.5729 183.787 40.8672 183.719 41.1797C183.651 41.4922 183.571 41.8112 183.477 42.1367C183.386 42.4596 183.283 42.7786 183.168 43.0938C183.056 43.4089 182.937 43.7083 182.809 43.9922H185.04V40.2969ZM196.995 42.1367C196.995 42.5768 196.94 42.9779 196.831 43.3398C196.721 43.6992 196.555 44.0091 196.331 44.2695C196.109 44.5299 195.828 44.7305 195.487 44.8711C195.146 45.0091 194.742 45.0781 194.276 45.0781C193.81 45.0781 193.406 45.0091 193.065 44.8711C192.724 44.7305 192.441 44.5299 192.217 44.2695C191.996 44.0091 191.831 43.6979 191.721 43.3359C191.612 42.974 191.557 42.5716 191.557 42.1289C191.557 41.5378 191.654 41.0234 191.846 40.5859C192.042 40.1458 192.341 39.8047 192.745 39.5625C193.148 39.3203 193.661 39.1992 194.284 39.1992C194.904 39.1992 195.413 39.3203 195.811 39.5625C196.212 39.8047 196.509 40.1458 196.702 40.5859C196.897 41.026 196.995 41.543 196.995 42.1367ZM192.827 42.1367C192.827 42.5352 192.876 42.8789 192.975 43.168C193.077 43.4544 193.234 43.6758 193.448 43.832C193.661 43.9857 193.937 44.0625 194.276 44.0625C194.62 44.0625 194.898 43.9857 195.112 43.832C195.325 43.6758 195.48 43.4544 195.577 43.168C195.676 42.8789 195.725 42.5352 195.725 42.1367C195.725 41.5378 195.613 41.0664 195.389 40.7227C195.165 40.3789 194.797 40.207 194.284 40.207C193.943 40.207 193.664 40.2852 193.448 40.4414C193.234 40.5951 193.077 40.8164 192.975 41.1055C192.876 41.3919 192.827 41.7357 192.827 42.1367ZM202.098 45V39.2891H205.708V40.2891H203.309V41.4805H203.786C204.322 41.4805 204.762 41.5547 205.106 41.7031C205.452 41.8516 205.708 42.0573 205.872 42.3203C206.038 42.5807 206.122 42.8789 206.122 43.2148C206.122 43.7799 205.933 44.2188 205.555 44.5312C205.18 44.8438 204.583 45 203.762 45H202.098ZM203.309 44.0078H203.715C204.083 44.0078 204.372 43.9492 204.583 43.832C204.794 43.7122 204.899 43.5065 204.899 43.2148C204.899 43.0117 204.847 42.8568 204.743 42.75C204.641 42.6432 204.494 42.5703 204.301 42.5312C204.111 42.4922 203.883 42.4727 203.618 42.4727H203.309V44.0078ZM215.807 45H214.6V42.5352H212.339V45H211.128V39.2891H212.339V41.5273H214.6V39.2891H215.807V45ZM226.356 42.1367C226.356 42.5768 226.302 42.9779 226.192 43.3398C226.083 43.6992 225.916 44.0091 225.692 44.2695C225.471 44.5299 225.19 44.7305 224.848 44.8711C224.507 45.0091 224.104 45.0781 223.638 45.0781C223.171 45.0781 222.768 45.0091 222.427 44.8711C222.085 44.7305 221.803 44.5299 221.579 44.2695C221.358 44.0091 221.192 43.6979 221.083 43.3359C220.973 42.974 220.919 42.5716 220.919 42.1289C220.919 41.5378 221.015 41.0234 221.208 40.5859C221.403 40.1458 221.703 39.8047 222.106 39.5625C222.51 39.3203 223.023 39.1992 223.645 39.1992C224.265 39.1992 224.774 39.3203 225.173 39.5625C225.574 39.8047 225.871 40.1458 226.063 40.5859C226.259 41.026 226.356 41.543 226.356 42.1367ZM222.188 42.1367C222.188 42.5352 222.238 42.8789 222.337 43.168C222.438 43.4544 222.596 43.6758 222.809 43.832C223.023 43.9857 223.299 44.0625 223.638 44.0625C223.981 44.0625 224.26 43.9857 224.473 43.832C224.687 43.6758 224.842 43.4544 224.938 43.168C225.037 42.8789 225.087 42.5352 225.087 42.1367C225.087 41.5378 224.975 41.0664 224.751 40.7227C224.527 40.3789 224.158 40.207 223.645 40.207C223.304 40.207 223.026 40.2852 222.809 40.4414C222.596 40.5951 222.438 40.8164 222.337 41.1055C222.238 41.3919 222.188 41.7357 222.188 42.1367ZM109.091 55H107.716L105.645 52.1055V55H104.434V49.2891H105.645V52.0547L107.692 49.2891H108.981L106.899 52.0312L109.091 55ZM118.315 49.2891L116.546 53.3281C116.387 53.6927 116.218 54.0065 116.038 54.2695C115.858 54.5299 115.63 54.7305 115.354 54.8711C115.078 55.0091 114.716 55.0781 114.268 55.0781C114.128 55.0781 113.975 55.0677 113.811 55.0469C113.647 55.0286 113.495 55 113.354 54.9609V53.9219C113.485 53.9714 113.625 54.0078 113.776 54.0312C113.93 54.0521 114.074 54.0625 114.21 54.0625C114.387 54.0625 114.53 54.0326 114.64 53.9727C114.749 53.9128 114.836 53.832 114.901 53.7305C114.966 53.6289 115.021 53.5156 115.065 53.3906L113.089 49.2891H114.37L115.436 51.7617C115.46 51.8138 115.49 51.8841 115.526 51.9727C115.565 52.0586 115.603 52.1471 115.64 52.2383C115.679 52.3268 115.709 52.4049 115.729 52.4727H115.772C115.793 52.4076 115.821 52.3294 115.854 52.2383C115.891 52.1445 115.929 52.0495 115.968 51.9531C116.007 51.8542 116.042 51.7656 116.073 51.6875L117.065 49.2891H118.315ZM122.954 55V49.2891H127.474V55H126.267V50.2969H124.165V55H122.954ZM132.835 49.2891H133.925V52.0469C133.925 52.1823 133.922 52.332 133.917 52.4961C133.914 52.6602 133.909 52.8216 133.901 52.9805C133.896 53.1367 133.891 53.2734 133.886 53.3906C133.881 53.5078 133.875 53.5859 133.87 53.625H133.894L136.53 49.2891H137.98V55H136.901V52.2578C136.901 52.112 136.904 51.9531 136.909 51.7812C136.914 51.6094 136.921 51.4427 136.929 51.2812C136.939 51.1198 136.948 50.9805 136.956 50.8633C136.964 50.7435 136.969 50.6641 136.972 50.625H136.94L134.292 55H132.835V49.2891ZM145.544 55H144.333V50.2969H142.782V49.2891H147.095V50.2969H145.544V55ZM151.894 55V49.2891H153.105V51.4805H153.581C154.118 51.4805 154.558 51.5547 154.902 51.7031C155.248 51.8516 155.503 52.0573 155.667 52.3203C155.834 52.5807 155.917 52.8789 155.917 53.2148C155.917 53.7799 155.728 54.2188 155.351 54.5312C154.976 54.8438 154.378 55 153.558 55H151.894ZM153.105 54.0078H153.511C153.878 54.0078 154.167 53.9492 154.378 53.832C154.589 53.7122 154.695 53.5065 154.695 53.2148C154.695 53.0117 154.642 52.8568 154.538 52.75C154.437 52.6432 154.29 52.5703 154.097 52.5312C153.907 52.4922 153.679 52.4727 153.413 52.4727H153.105V54.0078Z" fill="#F00014"/>
</svg>
