<svg width="20" height="18" viewBox="0 0 20 18" fill="none" xmlns="http://www.w3.org/2000/svg">
<path d="M9.77039 1.42939C9.85716 1.2279 10.1428 1.2279 10.2296 1.42939L12.0505 5.65766C12.3038 6.24597 12.8584 6.64885 13.4962 6.708L18.0802 7.13316C18.2986 7.15342 18.3869 7.42512 18.2221 7.56991L14.7634 10.6083C14.2822 11.031 14.0704 11.6829 14.2113 12.3078L15.2234 16.7988C15.2717 17.0128 15.0405 17.1807 14.8519 17.0687L10.8935 14.7183C10.3427 14.3912 9.65729 14.3912 9.10652 14.7183L5.14808 17.0687C4.95945 17.1807 4.72833 17.0128 4.77656 16.7988L5.78875 12.3078C5.92958 11.6829 5.71777 11.031 5.23655 10.6083L4.74156 11.1717L5.23655 10.6083L1.77791 7.56991C1.61309 7.42512 1.70138 7.15342 1.91982 7.13316L6.50382 6.708C7.14163 6.64885 7.69615 6.24596 7.9495 5.65766L9.77039 1.42939Z" stroke="#545454" stroke-width="1.5"/>
</svg>
