<svg width="18" height="23" viewBox="0 0 18 23" fill="none" xmlns="http://www.w3.org/2000/svg">
<path d="M5 3.13579V15.681C5 16.2355 5.21071 16.7674 5.58579 17.1595C5.96086 17.5516 6.46957 17.7719 7 17.7719H15C15.5304 17.7719 16.0391 17.5516 16.4142 17.1595C16.7893 16.7674 17 16.2355 17 15.681V6.52509C17 6.24655 16.9467 5.97082 16.8433 5.71409C16.7399 5.45737 16.5885 5.22482 16.398 5.03012L13.083 1.64082C12.7094 1.25888 12.2076 1.04499 11.685 1.04492H7C6.46957 1.04492 5.96086 1.26521 5.58579 1.65732C5.21071 2.04944 5 2.58126 5 3.13579V3.13579Z" stroke="#CFCFCF" stroke-width="2" stroke-linecap="round" stroke-linejoin="round"/>
<path d="M13 17.7721V19.863C13 20.4175 12.7893 20.9494 12.4142 21.3415C12.0391 21.7336 11.5304 21.9539 11 21.9539H3C2.46957 21.9539 1.96086 21.7336 1.58579 21.3415C1.21071 20.9494 1 20.4175 1 19.863V8.36321C1 7.80868 1.21071 7.27686 1.58579 6.88474C1.96086 6.49263 2.46957 6.27234 3 6.27234H5" stroke="#CFCFCF" stroke-width="2" stroke-linecap="round" stroke-linejoin="round"/>
</svg>
