<svg width="17" height="16" viewBox="0 0 17 16" fill="none" xmlns="http://www.w3.org/2000/svg">
<path d="M9.25845 7.78719C9.22143 7.71889 9.17523 7.65613 9.12117 7.60072L8.50408 6.98403C8.44069 6.91865 8.36584 6.86582 8.28335 6.82823C8.15354 6.76957 8.00924 6.75208 7.86944 6.77807C7.72963 6.80405 7.60086 6.87228 7.50004 6.9738C7.28605 7.1872 6.89439 7.57651 6.1878 8.28388C4.83653 9.63829 2.32745 11.9083 1.19287 12.8765C1.1357 12.925 1.0891 12.9849 1.056 13.0526C1.0229 13.1203 1.00402 13.1942 1.00058 13.2696C0.997129 13.345 1.00918 13.4204 1.03597 13.4908C1.06275 13.5613 1.10369 13.6254 1.15619 13.679L2.46843 15.0232C2.52128 15.0769 2.58452 15.1189 2.65417 15.1467C2.72383 15.1744 2.7984 15.1873 2.8732 15.1844C2.948 15.1816 3.0214 15.1631 3.08881 15.1301C3.15621 15.0971 3.21615 15.0504 3.26486 14.9928C4.24871 13.8211 6.50509 11.277 7.84089 9.93964C8.52696 9.25579 8.91154 8.86308 9.12924 8.64626C9.2372 8.53502 9.3078 8.39213 9.331 8.2379C9.3542 8.08367 9.32881 7.92596 9.25845 7.78719V7.78719Z" stroke="#D2D2D2" stroke-linecap="round" stroke-linejoin="round"/>
<path d="M16.0222 6.21848L14.8678 5.05942C14.8502 5.04159 14.8291 5.02758 14.806 5.01826C14.7829 5.00894 14.7581 5.0045 14.7332 5.00522C14.7083 5.0048 14.6836 5.00937 14.6605 5.01867C14.6374 5.02797 14.6164 5.04183 14.5986 5.05942C14.5571 5.10173 14.5065 5.13379 14.4508 5.15312C14.395 5.17245 14.3357 5.17853 14.2773 5.1709C14.1265 5.15419 13.966 5.10681 13.8624 5.00522C13.6269 4.77136 13.8991 4.31115 13.6918 4.01661C13.4551 3.6943 13.1956 3.38987 12.9152 3.10573C12.6777 2.8671 11.744 1.96474 10.1713 1.31499C9.66942 1.10668 9.13222 0.999682 8.58987 1C7.70326 1 7.02156 1.4009 6.77291 1.631C6.57506 1.81236 6.36914 2.10042 6.36914 2.10042C6.48805 2.0565 6.60952 2.02007 6.73287 1.99133C6.99009 1.93549 7.25403 1.91837 7.51618 1.94054C8.03973 1.98452 8.67062 2.23337 9.00911 2.50268C9.55453 2.94585 9.78906 3.53867 9.82573 4.30365C9.85265 4.87261 9.31328 5.59088 8.80151 6.17655C8.75648 6.22804 8.73276 6.29513 8.73527 6.36388C8.73777 6.43262 8.76631 6.49775 8.81497 6.54574L9.52964 7.26947C9.57942 7.31929 9.6464 7.3475 9.71637 7.34814C9.78634 7.34878 9.85381 7.32178 9.90447 7.27288C10.3732 6.81232 10.9506 6.30234 11.278 6.09814C11.6053 5.89394 11.8695 5.83633 11.9963 5.82235C12.2456 5.7979 12.4961 5.85297 12.713 5.97985C12.7512 6.00174 12.7861 6.02906 12.8166 6.06098C13.034 6.28461 13.0209 6.65006 12.7998 6.87028L12.7325 6.93471C12.715 6.95215 12.7011 6.97296 12.6916 6.9959C12.6822 7.01884 12.6773 7.04346 12.6773 7.06834C12.6773 7.09321 12.6822 7.11784 12.6916 7.14078C12.7011 7.16372 12.715 7.18452 12.7325 7.20197L13.887 8.36103C13.9047 8.3787 13.9257 8.39258 13.9488 8.40184C13.972 8.41109 13.9967 8.41553 14.0216 8.41489C14.0717 8.41561 14.12 8.39626 14.1561 8.36103L16.0222 6.4912C16.0566 6.45435 16.0758 6.40556 16.0758 6.35484C16.0758 6.30412 16.0566 6.25532 16.0222 6.21848V6.21848Z" stroke="#D2D2D2" stroke-linecap="round" stroke-linejoin="round"/>
</svg>
