<svg width="24" height="23" viewBox="0 0 24 23" fill="none" xmlns="http://www.w3.org/2000/svg">
<path d="M6.83333 4.86143e-09H17.1667C17.7201 -3.78775e-05 18.2526 0.221322 18.6548 0.618671C19.0571 1.01602 19.2987 1.55923 19.33 2.13688L19.3333 2.26512V4.18106L20.5 4.18176C22.4333 4.18176 24 5.81962 24 7.8408V17.2498C24 17.8505 23.7717 18.4266 23.3654 18.8514C22.9591 19.2762 22.408 19.5149 21.8333 19.5149L19.3333 19.5142V20.7346C19.3333 21.3353 19.1051 21.9114 18.6987 22.3362C18.2924 22.761 17.7413 22.9997 17.1667 22.9997H6.83333C6.2587 22.9997 5.7076 22.761 5.30127 22.3362C4.89494 21.9114 4.66667 21.3353 4.66667 20.7346V19.5142L2.16667 19.5149C1.59203 19.5149 1.04093 19.2762 0.634602 18.8514C0.228273 18.4266 0 17.8505 0 17.2498V7.8408C0 5.81962 1.56667 4.18176 3.5 4.18176L4.66667 4.18106V2.26512C4.66663 1.68655 4.87837 1.12989 5.25845 0.709344C5.63853 0.288797 6.15813 0.036241 6.71067 0.00348488L6.83333 4.86143e-09ZM17.1667 14.2877H6.83333C6.70073 14.2877 6.57355 14.3427 6.47978 14.4408C6.38601 14.5388 6.33333 14.6718 6.33333 14.8104V20.7346C6.33333 21.0231 6.55733 21.2573 6.83333 21.2573H17.1667C17.2993 21.2573 17.4265 21.2022 17.5202 21.1042C17.614 21.0061 17.6667 20.8732 17.6667 20.7346V14.8104C17.6667 14.6718 17.614 14.5388 17.5202 14.4408C17.4265 14.3427 17.2993 14.2877 17.1667 14.2877ZM20.5 5.92416H3.5C3.01377 5.92416 2.54745 6.12609 2.20364 6.48553C1.85982 6.84497 1.66667 7.33247 1.66667 7.8408V17.2498C1.66667 17.5383 1.89067 17.7725 2.16667 17.7725L4.66667 17.7718V14.8104C4.66667 14.2097 4.89494 13.6335 5.30127 13.2087C5.7076 12.7839 6.2587 12.5453 6.83333 12.5453H17.1667C17.7413 12.5453 18.2924 12.7839 18.6987 13.2087C19.1051 13.6335 19.3333 14.2097 19.3333 14.8104V17.7718L21.8333 17.7725C21.9659 17.7725 22.0931 17.7174 22.1869 17.6194C22.2807 17.5213 22.3333 17.3884 22.3333 17.2498V7.8408C22.3333 7.33247 22.1402 6.84497 21.7964 6.48553C21.4525 6.12609 20.9862 5.92416 20.5 5.92416ZM17.1667 1.7424H6.83333C6.71251 1.74241 6.59577 1.78815 6.50471 1.87117C6.41365 1.9542 6.35443 2.06889 6.338 2.19403L6.33333 2.26512V4.18106H17.6667V2.26512C17.6667 2.1388 17.6229 2.01676 17.5435 1.92157C17.4641 1.82637 17.3544 1.76446 17.2347 1.74728L17.1667 1.7424Z" fill="#CFCFCF"/>
</svg>
