<svg width="20" height="23" viewBox="0 0 20 23" fill="none" xmlns="http://www.w3.org/2000/svg">
<path d="M16.6667 16.2353C17.5694 16.2353 18.3333 16.569 18.9583 17.2365C19.5833 17.9039 19.8958 18.6976 19.8958 19.6176C19.8958 20.5376 19.5833 21.3314 18.9583 21.9988C18.3333 22.6663 17.5694 23 16.6667 23C15.7639 23 15 22.6663 14.375 21.9988C13.75 21.3314 13.4375 20.5286 13.4375 19.5906C13.4375 19.3741 13.4549 19.1216 13.4896 18.8329L5.625 14.0706C4.96528 14.6839 4.20139 14.9906 3.33333 14.9906C2.39583 14.9906 1.6059 14.6569 0.963542 13.9894C0.321181 13.322 0 12.5012 0 11.5271C0 10.5529 0.321181 9.73216 0.963542 9.06471C1.6059 8.39725 2.39583 8.06353 3.33333 8.06353C4.20139 8.06353 4.96528 8.3702 5.625 8.98353L13.4375 4.27529C13.3681 3.95059 13.3333 3.68 13.3333 3.46353C13.3333 2.48941 13.6545 1.66863 14.2969 1.00118C14.9392 0.333726 15.7292 0 16.6667 0C17.6042 0 18.3941 0.333726 19.0365 1.00118C19.6788 1.66863 20 2.48039 20 3.43647C20 4.39255 19.6788 5.21333 19.0365 5.89882C18.3941 6.58431 17.6042 6.92706 16.6667 6.92706C15.7986 6.92706 15.0347 6.60235 14.375 5.95294L6.5625 10.7153C6.63194 11.04 6.66667 11.3106 6.66667 11.5271C6.66667 11.7435 6.63194 12.0141 6.5625 12.3388L14.4792 17.1012C15.1042 16.5239 15.8333 16.2353 16.6667 16.2353Z" fill="#CFCFCF"/>
</svg>
