<svg width="260" height="34" viewBox="0 0 260 34" fill="none" xmlns="http://www.w3.org/2000/svg">
<path d="M19.1016 28.3008H14.5898V22.9688H4.60547V28.3008H0.09375V19.1719H1.51172C2.53516 17.4375 3.37891 15.4336 4.04297 13.1602C4.70703 10.8789 5.13672 8.4375 5.33203 5.83594H16.7578V19.1719H19.1016V28.3008ZM12.0938 19.1719V9.62109H9.04688C8.72656 12.9648 7.84766 16.1484 6.41016 19.1719H12.0938Z" fill="#BFBFBF"/>
<path d="M37.4297 14.3789C37.4297 17.2617 36.7227 19.4531 35.3086 20.9531C33.8945 22.4531 31.8242 23.2031 29.0977 23.2031C26.4102 23.2031 24.3477 22.4492 22.9102 20.9414C21.4805 19.4336 20.7656 17.2383 20.7656 14.3555C20.7656 11.5039 21.4766 9.32812 22.8984 7.82812C24.3281 6.32031 26.4023 5.56641 29.1211 5.56641C31.8477 5.56641 33.9141 6.3125 35.3203 7.80469C36.7266 9.29688 37.4297 11.4883 37.4297 14.3789ZM25.6406 14.3789C25.6406 17.6914 26.793 19.3477 29.0977 19.3477C30.2695 19.3477 31.1367 18.9453 31.6992 18.1406C32.2695 17.3359 32.5547 16.082 32.5547 14.3789C32.5547 12.668 32.2656 11.4062 31.6875 10.5938C31.1172 9.77344 30.2617 9.36328 29.1211 9.36328C26.8008 9.36328 25.6406 11.0352 25.6406 14.3789Z" fill="#BFBFBF"/>
<path d="M55.1133 22.9688H50.4609V9.62109H47.1914C47.0117 11.5664 46.7695 13.5469 46.4648 15.5625C46.168 17.5781 45.8828 18.9922 45.6094 19.8047C45.3359 20.6172 44.9883 21.2656 44.5664 21.75C44.1523 22.2266 43.6367 22.5898 43.0195 22.8398C42.4023 23.082 41.6562 23.2031 40.7812 23.2031C40.1172 23.2031 39.5117 23.1172 38.9648 22.9453V19.3711C39.4336 19.5273 39.8164 19.6055 40.1133 19.6055C40.5195 19.6055 40.8281 19.4375 41.0391 19.1016C41.2578 18.7578 41.457 18.1797 41.6367 17.3672C41.8164 16.5469 42.0664 15.0312 42.3867 12.8203C42.707 10.6016 43.0039 8.27344 43.2773 5.83594H55.1133V22.9688Z" fill="#BFBFBF"/>
<path d="M71.0625 17.2852C71.0625 19.1133 70.4375 20.5195 69.1875 21.5039C67.9453 22.4805 66.1797 22.9688 63.8906 22.9688H58.8281V5.83594H63.4805V11.9297H63.7148C66.1055 11.9297 67.9258 12.3828 69.1758 13.2891C70.4336 14.1875 71.0625 15.5195 71.0625 17.2852ZM63.4805 19.418H63.6914C65.5039 19.418 66.4102 18.7461 66.4102 17.4023C66.4102 16.1211 65.4961 15.4805 63.668 15.4805H63.4805V19.418Z" fill="#BFBFBF"/>
<path d="M73.7812 22.9688V5.83594H78.4336V19.1719H82.7109V5.83594H87.2695V19.1719H91.5352V5.83594H96.1992V19.1719H99.7969V28.3008H95.2852V22.9688H73.7812Z" fill="#BFBFBF"/>
<path d="M102.094 5.83594H106.219V13.1953C106.219 13.9766 106.156 15.5391 106.031 17.8828H106.125L112.957 5.83594H118.676V22.9688H114.574V15.7969C114.574 14.7109 114.645 13.0859 114.785 10.9219H114.691L107.801 22.9688H102.094V5.83594Z" fill="#BFBFBF"/>
<path d="M137.367 22.9688H132.129L127.043 14.2852V22.9688H122.391V5.83594H127.043V14.1328L131.941 5.83594H137.027L131.742 14.0156L137.367 22.9688Z" fill="#BFBFBF"/>
<path d="M167.625 14.3789C167.625 17.2617 166.918 19.4531 165.504 20.9531C164.09 22.4531 162.02 23.2031 159.293 23.2031C156.605 23.2031 154.543 22.4492 153.105 20.9414C151.676 19.4336 150.961 17.2383 150.961 14.3555C150.961 11.5039 151.672 9.32812 153.094 7.82812C154.523 6.32031 156.598 5.56641 159.316 5.56641C162.043 5.56641 164.109 6.3125 165.516 7.80469C166.922 9.29688 167.625 11.4883 167.625 14.3789ZM155.836 14.3789C155.836 17.6914 156.988 19.3477 159.293 19.3477C160.465 19.3477 161.332 18.9453 161.895 18.1406C162.465 17.3359 162.75 16.082 162.75 14.3789C162.75 12.668 162.461 11.4062 161.883 10.5938C161.312 9.77344 160.457 9.36328 159.316 9.36328C156.996 9.36328 155.836 11.0352 155.836 14.3789Z" fill="#BFBFBF"/>
<path d="M185.402 22.9688H180.75V15.9844H175.371V22.9688H170.719V5.83594H175.371V12.1875H180.75V5.83594H185.402V22.9688Z" fill="#BFBFBF"/>
<path d="M203.707 22.9688H199.055V9.62109H195.785C195.605 11.5664 195.363 13.5469 195.059 15.5625C194.762 17.5781 194.477 18.9922 194.203 19.8047C193.93 20.6172 193.582 21.2656 193.16 21.75C192.746 22.2266 192.23 22.5898 191.613 22.8398C190.996 23.082 190.25 23.2031 189.375 23.2031C188.711 23.2031 188.105 23.1172 187.559 22.9453V19.3711C188.027 19.5273 188.41 19.6055 188.707 19.6055C189.113 19.6055 189.422 19.4375 189.633 19.1016C189.852 18.7578 190.051 18.1797 190.23 17.3672C190.41 16.5469 190.66 15.0312 190.98 12.8203C191.301 10.6016 191.598 8.27344 191.871 5.83594H203.707V22.9688Z" fill="#BFBFBF"/>
<path d="M217.934 22.9688L217.09 19.7578H211.523L210.656 22.9688H205.57L211.16 5.76562H217.336L222.996 22.9688H217.934ZM216.129 15.9609L215.391 13.1484C215.219 12.5234 215.008 11.7148 214.758 10.7227C214.516 9.73047 214.355 9.01953 214.277 8.58984C214.207 8.98828 214.066 9.64453 213.855 10.5586C213.652 11.4727 213.195 13.2734 212.484 15.9609H216.129Z" fill="#BFBFBF"/>
<path d="M224.859 5.83594H228.984V13.1953C228.984 13.9766 228.922 15.5391 228.797 17.8828H228.891L235.723 5.83594H241.441V22.9688H237.34V15.7969C237.34 14.7109 237.41 13.0859 237.551 10.9219H237.457L230.566 22.9688H224.859V5.83594ZM233.109 4.46484C231.242 4.46484 229.844 4.10156 228.914 3.375C227.992 2.64844 227.477 1.52344 227.367 0H231.188C231.227 0.765625 231.395 1.32031 231.691 1.66406C231.988 2.00781 232.461 2.17969 233.109 2.17969C234.281 2.17969 234.922 1.45312 235.031 0H238.91C238.59 2.97656 236.656 4.46484 233.109 4.46484Z" fill="#BFBFBF"/>
<path d="M259.84 22.9688H255.188V15.9844H249.809V22.9688H245.156V5.83594H249.809V12.1875H255.188V5.83594H259.84V22.9688Z" fill="#BFBFBF"/>
<path d="M142 19.9688H146V23.9688H142V19.9688Z" fill="#BFBFBF"/>
<path d="M0 30.9688H260V33.9688H0V30.9688Z" fill="#BFBFBF"/>
</svg>
